PathFileType	4	(X/Y/Z)	./resultDataOpenSim/trcMotMarkerGrf/sub06/qtm-14-08.trc
DataRate	CameraRate	NumFrames	NumMarkers	Units	OrigDataRate	OrigDataStartFrame	OrigNumFrames
250.000000	250.000000	8	24	m	250.000000	198	527
Frame#	Time	L.Toe.Tip			R.Toe.Tip			L.Ankle.Lat			R.Ankle.Lat			L.Ankle.Med			R.Ankle.Med			L.Heel			R.Heel			L.Knee.Lat			R.Knee.Lat			L.Knee.Med			R.Knee.Med			L.Thigh.Upper			R.Thigh.Upper			L.ASIS			R.ASIS			V.Sacral			L.Acromium			R.Acromium			C7			L.Elbow			R.Elbow			L.Wrist.Lat			R.Wrist.Lat
		X1	Y1	Z1	X2	Y2	Z2	X3	Y3	Z3	X4	Y4	Z4	X5	Y5	Z5	X6	Y6	Z6	X7	Y7	Z7	X8	Y8	Z8	X9	Y9	Z9	X10	Y10	Z10	X11	Y11	Z11	X12	Y12	Z12	X13	Y13	Z13	X14	Y14	Z14	X15	Y15	Z15	X16	Y16	Z16	X17	Y17	Z17	X18	Y18	Z18	X19	Y19	Z19	X20	Y20	Z20	X21	Y21	Z21	X22	Y22	Z22	X23	Y23	Z23	X24	Y24	Z24

198	0.788	0.058193337	-0.039383469	-0.0087349791	-0.52173884	0.094512719	0.1207221	-0.06146559	-0.0086681618	-0.050554985	-0.52342729	0.23534654	0.13813369	-0.074748522	0.0079751409	0.035365964	-0.47948333	0.21519203	0.060913096	-0.14191302	-0.034786775	-0.018484317	-0.54088939	0.27576379	0.068414536	0.0070151065	0.3644909	-0.069571362	-0.1725408	0.34455198	0.21583883	-0.018291936	0.36282505	0.046290433	-0.16395056	0.32490468	0.08359117	-0.11032854	0.73425332	-0.1551054	-0.20405448	0.70371216	0.18157228	-0.052138966	0.77336887	-0.092660499	-0.094434688	0.7576327	0.14410114	-0.26005649	0.84529156	0.0043183316	-0.13912079	1.2392528	-0.18229416	-0.16354079	1.2452412	0.18067972	-0.22390689	1.2836442	-0.0082227384	-0.24160632	0.94894474	-0.22916577	-0.18000481	0.93042762	0.2817568	-0.19003386	0.71739118	-0.27934158	0.048774214	0.83010645	0.27536306
199	0.792	0.058196797	-0.039395656	-0.0087036283	-0.50493861	0.095993537	0.12117243	-0.061412692	-0.0088072986	-0.050731718	-0.50801239	0.23661744	0.13857142	-0.07498523	0.0078938225	0.035340484	-0.46416958	0.21695415	0.061292599	-0.14189917	-0.034646538	-0.01859181	-0.52623106	0.27709129	0.069105071	0.0088707528	0.36249567	-0.070023649	-0.15799918	0.34569058	0.21624939	-0.015783378	0.36131083	0.046365595	-0.15011194	0.32602049	0.083637248	-0.10401634	0.73522395	-0.15566333	-0.19733445	0.70497854	0.18155089	-0.046594083	0.77452143	-0.09364275	-0.08855937	0.75977518	0.14368631	-0.25347418	0.846203	0.0049235814	-0.13193603	1.2402283	-0.18198672	-0.15581256	1.2464818	0.18046381	-0.21698839	1.2845571	-0.0079270237	-0.23173504	0.94914933	-0.22901914	-0.17658339	0.93189693	0.28035814	-0.17822782	0.71809035	-0.27949294	0.050342177	0.82718121	0.27605758
200	0.796	0.058210272	-0.039404133	-0.0086610888	-0.48788144	0.097243589	0.12159972	-0.061276265	-0.008906146	-0.050757281	-0.49260435	0.23761992	0.13901813	-0.075236271	0.0078465916	0.035343597	-0.44870418	0.21854117	0.061698548	-0.14187826	-0.034548114	-0.018652194	-0.51161974	0.27815817	0.069926522	0.010958116	0.36056896	-0.070020994	-0.14343011	0.3470508	0.2165388	-0.01419604	0.36000424	0.046630409	-0.1362246	0.32715146	0.083476745	-0.097601712	0.73604276	-0.15601779	-0.19042988	0.70624051	0.18158122	-0.041036037	0.77577371	-0.09450155	-0.082733627	0.76208955	0.14333808	-0.246853	0.84712131	0.0058239897	-0.12477896	1.2413484	-0.18166972	-0.14830498	1.2478081	0.18030345	-0.21015464	1.2855691	-0.0076634749	-0.22195568	0.94949496	-0.22884915	-0.17313406	0.93361705	0.27893295	-0.16628801	0.71898913	-0.27954241	0.051700371	0.82434812	0.27677929
201	0.8	0.058219342	-0.039409249	-0.0086036623	-0.47058016	0.098259513	0.12202513	-0.061092397	-0.0089606836	-0.050648763	-0.47720858	0.23835098	0.1394798	-0.075362426	0.007873632	0.035347792	-0.43311867	0.21992643	0.062183644	-0.14186142	-0.034473204	-0.018651137	-0.49708219	0.27893293	0.070846378	0.013373602	0.35890266	-0.069571383	-0.12883901	0.34864999	0.21671898	-0.013462394	0.35893922	0.047007545	-0.12226736	0.32834419	0.083194379	-0.091182863	0.73667067	-0.15618494	-0.18348903	0.70757083	0.18132261	-0.035439805	0.77709604	-0.095217055	-0.076970238	0.76453554	0.14310038	-0.24071916	0.84818295	0.0058615147	-0.11764831	1.2426505	-0.181371	-0.14101827	1.2492158	0.18019707	-0.2033398	1.286707	-0.007460356	-0.21222408	0.94997095	-0.22871952	-0.16970754	0.93554046	0.2775087	-0.15421642	0.72008376	-0.27948524	0.052882273	0.82162442	0.27753059
202	0.804	0.058212683	-0.039413774	-0.0085223043	-0.45306209	0.099041835	0.12246452	-0.060932722	-0.0089713289	-0.050484637	-0.46176573	0.23883495	0.13999497	-0.075331936	0.007966196	0.03535248	-0.41744934	0.22109341	0.062833811	-0.14186337	-0.034394142	-0.018598344	-0.482614	0.27938198	0.071815481	0.016025116	0.35764707	-0.068830752	-0.11424479	0.35050892	0.21679261	-0.013419639	0.35818293	0.047443347	-0.10823046	0.3297279	0.082822226	-0.084771093	0.73713952	-0.15627506	-0.17662113	0.70898794	0.1805741	-0.029794537	0.77847669	-0.095782174	-0.071245781	0.76707091	0.14295806	-0.23522515	0.84948477	0.0044977265	-0.11051156	1.2441384	-0.18109694	-0.13393687	1.2506988	0.18013708	-0.1964781	1.2879803	-0.0073342272	-0.20246801	0.95054368	-0.22876234	-0.16637694	0.93761368	0.2761024	-0.14202619	0.72135535	-0.27933282	0.053914314	0.81902166	0.27829844
203	0.808	0.058189156	-0.039419124	-0.0084125536	-0.43533742	0.099605316	0.12293882	-0.060830942	-0.0089435868	-0.050332719	-0.44618206	0.23911158	0.1406042	-0.075220792	0.0080805906	0.035383451	-0.40172646	0.22203663	0.063673464	-0.14189306	-0.034296684	-0.018537059	-0.46819067	0.27948552	0.072788084	0.018705148	0.35686074	-0.068003933	-0.099671649	0.35264839	0.2167533	-0.01381267	0.35779275	0.047898773	-0.094003616	0.33143512	0.082380997	-0.078363797	0.73754331	-0.15641381	-0.16971402	0.71045109	0.17956488	-0.024126798	0.77992148	-0.096208438	-0.065541865	0.76965546	0.14288811	-0.23006594	0.85099147	0.002251968	-0.10331649	1.2457821	-0.1808286	-0.12703766	1.2522508	0.18011531	-0.18951931	1.2893854	-0.0072816968	-0.19272485	0.95120509	-0.22894545	-0.16312519	0.93979029	0.27470489	-0.12974177	0.72278364	-0.27910471	0.054766017	0.81654259	0.2790879
204	0.812	0.058151891	-0.039423892	-0.0082801159	-0.41737249	0.099989631	0.1234888	-0.060770122	-0.0088816362	-0.050219856	-0.43045662	0.23918096	0.14130363	-0.075146302	0.0081877093	0.035444962	-0.38596404	0.22275904	0.06458414	-0.14194898	-0.034182363	-0.018521269	-0.45378013	0.27924548	0.073747879	0.021201665	0.35648888	-0.067231265	-0.085137847	0.35509014	0.21659559	-0.014460491	0.35773955	0.048291468	-0.079535419	0.3335599	0.081902231	-0.072027789	0.73800188	-0.15665975	-0.16273611	0.71197668	0.17870878	-0.018466609	0.78145121	-0.096528673	-0.05984846	0.77225533	0.14287912	-0.22469049	0.85257393	0.000112032	-0.096045855	1.2475492	-0.18053943	-0.12028339	1.2538648	0.18012322	-0.18244504	1.2909143	-0.0072796553	-0.18314032	0.95197481	-0.22905314	-0.15984619	0.94203421	0.27330791	-0.11738518	0.72435659	-0.27882554	0.055396121	0.81417727	0.27992712
205	0.816	0.058106828	-0.0394255	-0.0081384187	-0.3991224	0.10023747	0.12416577	-0.060713526	-0.0087834237	-0.050142259	-0.41465625	0.23902086	0.14207452	-0.075204048	0.0082879084	0.035513075	-0.3701442	0.22326404	0.065364207	-0.14202157	-0.034059834	-0.018571276	-0.43936041	0.27866445	0.074710655	0.023360168	0.35640533	-0.066566221	-0.070659167	0.35785453	0.2163233	-0.015276895	0.35791193	0.04853554	-0.06498274	0.33616867	0.081384411	-0.065836058	0.73861363	-0.15700235	-0.15581388	0.71365368	0.17816398	-0.012807453	0.78307699	-0.096788545	-0.05415648	0.77484974	0.1429137	-0.21878765	0.85413576	-0.0014428367	-0.088729628	1.2494157	-0.18021121	-0.11362278	1.2555299	0.18015032	-0.17527056	1.292557	-0.0072975226	-0.17377662	0.95284961	-0.2289935	-0.1564713	0.94431713	0.27192871	-0.10496635	0.72606714	-0.27852603	0.055844848	0.81191059	0.28082837
